<svg xmlns="http://www.w3.org/2000/svg" viewBox="0 0 147 147"><defs><style>.cls-1,.cls-2{fill:#fff;}.cls-1{stroke:#fff;stroke-miterlimit:10;stroke-width:9px;opacity:0.29;}</style></defs><title>Asset 13</title><g id="Layer_2" data-name="Layer 2"><g id="Layer_1-2" data-name="Layer 1"><circle class="cls-1" cx="73.5" cy="73.5" r="69"/><path class="cls-2" d="M106.92,61.23V94.65c-.06.27-.13.54-.19.82a8.91,8.91,0,0,1-8.89,7q-24.34,0-48.68,0h-.52A9,9,0,0,1,40.39,96c-.12-.44-.21-.89-.31-1.33V61.23a3,3,0,0,0,.12-.43,8.76,8.76,0,0,1,7.88-7.27c2.64-.16,5.3-.09,8-.08a.89.89,0,0,0,1-.69c.43-1.3.93-2.57,1.42-3.85a6.89,6.89,0,0,1,6.37-4.38H82.15a6.88,6.88,0,0,1,6.36,4.38c.49,1.28,1,2.55,1.43,3.85.18.56.46.7,1,.69,2.33,0,4.65,0,7,0a9,9,0,0,1,8.65,6.47C106.72,60.35,106.81,60.79,106.92,61.23ZM73.51,93.56A15.6,15.6,0,1,0,57.91,78,15.55,15.55,0,0,0,73.51,93.56Z"/><path class="cls-2" d="M73.48,88a10,10,0,1,1,10-10A10,10,0,0,1,73.48,88Z"/></g></g></svg>