<svg xmlns="http://www.w3.org/2000/svg" viewBox="0 0 62.81 67.63"><defs><style>.cls-1{fill:#fff;}</style></defs><title>Asset 14</title><g id="Layer_2" data-name="Layer 2"><g id="Layer_1-2" data-name="Layer 1"><path class="cls-1" d="M56.11,0A2.81,2.81,0,0,1,58,3c-.06,4.49,0,9,0,13.47a2.5,2.5,0,0,1-2,2.82L42,24a2.38,2.38,0,0,1-2.71-.63,2.3,2.3,0,0,1-.45-2.53,2.46,2.46,0,0,1,1.63-1.43c3.27-1.08,6.54-2.18,9.81-3.27l.68-.24c-.11-.14-.17-.25-.25-.33a26,26,0,0,0-17-8.18A26.44,26.44,0,0,0,5.34,28.78a41.36,41.36,0,0,0-.49,5,2.46,2.46,0,0,1-2.94,2.42A2.44,2.44,0,0,1,0,33.66a30.88,30.88,0,0,1,5.1-17A30.23,30.23,0,0,1,24.88,3.12C35.25,1,44.49,3.6,52.46,10.59l.65.6c0-.35,0-.57,0-.78,0-2.47.05-4.94,0-7.4a2.75,2.75,0,0,1,1.92-3Z"/><path class="cls-1" d="M6.7,67.63a2.81,2.81,0,0,1-1.88-3c.06-4.51,0-9,0-13.54a2.47,2.47,0,0,1,2-2.74l14-4.68a2.38,2.38,0,0,1,2.67.59A2.31,2.31,0,0,1,24,46.8a2.44,2.44,0,0,1-1.62,1.43c-3.38,1.12-6.75,2.26-10.13,3.39l-.48.17c1.09,1,2,2,3.1,2.78a26.08,26.08,0,0,0,18,5.77A26.53,26.53,0,0,0,57,40.84,26.83,26.83,0,0,0,58,33.93a2.42,2.42,0,1,1,4.84.11A30.8,30.8,0,0,1,58.6,49.52,30.12,30.12,0,0,1,39.34,64.17c-10.93,2.71-20.68.18-29.14-7.27l-.34-.31-.17,0c0,.24,0,.46,0,.68,0,2.46-.05,4.93,0,7.39a2.75,2.75,0,0,1-1.92,3Z"/></g></g></svg>